<?xml version="1.0" encoding="utf-8"?>
<!-- Generator: Adobe Illustrator 22.1.0, SVG Export Plug-In . SVG Version: 6.00 Build 0)  -->
<svg version="1.1" id="Layer_1" xmlns="http://www.w3.org/2000/svg" xmlns:xlink="http://www.w3.org/1999/xlink" x="0px" y="0px"
	 viewBox="0 0 32 40" style="enable-background:new 0 0 32 40;" xml:space="preserve">

<symbol id="bell" viewBox="0 0 32 35" height="30">
  <style type="text/css">
  	.bell{fill:#FFFFFF;}
  	.notification-circle{fill:transparent;}
  </style>
  <g id="_x36__6_">
  	<g>
  		<path class="bell" d="M23.5,22v-8c0-5.5-4.4-10-9.8-10S3.9,8.5,3.9,14v8L0,30h8.9c0.5,2.3,2.5,4,4.8,4s4.3-1.7,4.8-4h8.9L23.5,22z
  			 M13.7,32c-1.3,0-2.4-0.8-2.7-2h5.5C16.1,31.2,15,32,13.7,32z M2.9,28l2.9-6v-8c0-4.4,3.5-8,7.8-8s7.8,3.6,7.8,8v8l2.9,6H2.9z"/>
  	</g>
  	<ellipse class="notification-circle" cx="27.5" cy="6" rx="4.2" ry="4.3"/>
  </g>
  </symbol>
</svg>
